name rise31.4854peak64.571fall78.6902.mot
datacolumns 19
datarows 14
range 12.56162000000000 12.58328800000000
endheader
time	ground_force1_vx	ground_force1_vy	ground_force1_vz	ground_force1_px	ground_force1_py	ground_force1_pz	ground_force2_vx	ground_force2_vy	ground_force2_vz	ground_force2_px	ground_force2_py	ground_force2_pz	ground_torque1_x	ground_torque1_y	ground_torque1_z	ground_torque2_x	ground_torque2_y	ground_torque2_z	
12.56162000000000	-52.35934800000000	813.42200600000001	51.69895200000000	0.09605100000000	0.00000000000000	0.09614500000000	-3.79819700000000	11.02969500000000	3.88679300000000	0.00000000000000	0.00000000000000	0.00000000000000	0.00000000000000	18.37474700000000	0.00000000000000	0.00000000000000	1.19655300000000	0.00000000000000	
12.56328300000000	-52.30716800000000	810.46365400000002	51.40053800000000	0.09569500000000	0.00000000000000	0.09616000000000	-5.03966400000000	15.66175400000000	5.32245800000000	0.00000000000000	0.00000000000000	0.00000000000000	0.00000000000000	18.26114700000000	0.00000000000000	0.00000000000000	1.66301700000000	0.00000000000000	
12.56495400000000	-52.26490100000000	807.42068800000004	51.08062100000000	0.09534900000000	0.00000000000000	0.09617200000000	-6.34049400000000	20.84837800000000	6.87801600000000	0.00000000000000	0.00000000000000	0.00000000000000	0.00000000000000	18.14843700000000	0.00000000000000	0.00000000000000	2.17495500000000	0.00000000000000	
12.56662000000000	-52.23373100000000	804.29481499999997	50.73948700000000	0.09501200000000	0.00000000000000	0.09618200000000	-7.65277900000000	26.48847700000000	8.50927800000000	0.32411500000000	0.00000000000000	-0.06669500000000	0.00000000000000	18.03685400000000	0.00000000000000	0.00000000000000	4.96695700000000	0.00000000000000	
12.56828700000000	-52.21481100000000	801.08765300000005	50.37745700000000	0.09468500000000	0.00000000000000	0.09618900000000	-8.92630500000000	32.46491000000000	10.16792200000000	0.33016400000000	0.00000000000000	-0.06708900000000	0.00000000000000	17.92662200000000	0.00000000000000	0.00000000000000	6.03995500000000	0.00000000000000	
12.56995300000000	-52.20926200000000	797.80071699999996	49.99488500000000	0.09436500000000	0.00000000000000	0.09619300000000	-10.11235000000000	38.65450900000000	11.80522900000000	0.33563900000000	0.00000000000000	-0.06748000000000	0.00000000000000	17.81796100000000	0.00000000000000	0.00000000000000	7.12696000000000	0.00000000000000	
12.57162500000000	-52.21816000000000	794.43541200000004	49.59215600000000	0.09405300000000	0.00000000000000	0.09619400000000	-11.16725300000000	44.93825600000000	13.37573100000000	0.34060600000000	0.00000000000000	-0.06787000000000	0.00000000000000	17.71108100000000	0.00000000000000	0.00000000000000	8.19901300000000	0.00000000000000	
12.57328900000000	-52.24253800000000	790.99302100000000	49.16968500000000	0.09374700000000	0.00000000000000	0.09619300000000	-12.05530300000000	51.21026600000000	14.84029300000000	0.34512400000000	0.00000000000000	-0.06825900000000	0.00000000000000	17.60617900000000	0.00000000000000	0.00000000000000	9.23006500000000	0.00000000000000	
12.57495000000000	-52.28337200000000	787.47469699999999	48.72791200000000	0.09344600000000	0.00000000000000	0.09618800000000	-12.75065300000000	57.38462600000000	16.16832600000000	0.34923900000000	0.00000000000000	-0.06864700000000	0.00000000000000	17.50344500000000	0.00000000000000	0.00000000000000	10.19857800000000	0.00000000000000	
12.57661700000000	-52.34158000000000	783.88145099999997	48.26730300000000	0.09314900000000	0.00000000000000	0.09618100000000	-13.23817000000000	63.39962100000000	17.33899300000000	0.35299600000000	0.00000000000000	-0.06903600000000	0.00000000000000	17.40305600000000	0.00000000000000	0.00000000000000	11.08853700000000	0.00000000000000	
12.57829200000000	-52.41801400000000	780.21415200000001	47.78834700000000	0.09285500000000	0.00000000000000	0.09617000000000	-13.51328900000000	69.21931800000000	18.34143100000000	0.35642900000000	0.00000000000000	-0.06942700000000	0.00000000000000	17.30517700000000	0.00000000000000	0.00000000000000	11.88985000000000	0.00000000000000	
12.57995600000000	-52.51345600000000	776.47351200000003	47.29155100000000	0.09256300000000	0.00000000000000	0.09615700000000	-13.58101300000000	74.83275300000000	19.17412300000000	0.35957000000000	0.00000000000000	-0.06981800000000	0.00000000000000	17.20995800000000	0.00000000000000	0.00000000000000	12.59819200000000	0.00000000000000	
12.58163100000000	-52.62860900000000	772.66008599999998	46.77744400000000	0.09227300000000	0.00000000000000	0.09614100000000	-13.45429900000000	80.25120699999999	19.84360400000000	0.36244800000000	0.00000000000000	-0.07021000000000	0.00000000000000	17.11753900000000	0.00000000000000	0.00000000000000	13.21439800000000	0.00000000000000	
12.58328800000000	-52.76409400000000	768.77426400000002	46.24656700000000	0.09198300000000	0.00000000000000	0.09612200000000	-13.15205900000000	85.50410200000000	20.36273000000000	0.36508700000000	0.00000000000000	-0.07060300000000	0.00000000000000	17.02804000000000	0.00000000000000	0.00000000000000	13.74353500000000	0.00000000000000	
